STARTFONT 2.1
FONT -FontForge-Eight Bit Dragon-Book-R-Normal--9-90-75-75-P-57-ISO10646-1
SIZE 9 75 75
FONTBOUNDINGBOX 6 9 0 -1
COMMENT "Generated by fontforge, http://fontforge.sourceforge.net"
COMMENT "Copyright Chequered Ink Ltd. 2018"
STARTPROPERTIES 40
FOUNDRY "FontForge"
FAMILY_NAME "Eight Bit Dragon"
WEIGHT_NAME "Book"
SLANT "R"
SETWIDTH_NAME "Normal"
ADD_STYLE_NAME ""
PIXEL_SIZE 9
POINT_SIZE 90
RESOLUTION_X 75
RESOLUTION_Y 75
SPACING "P"
AVERAGE_WIDTH 57
CHARSET_REGISTRY "ISO10646"
CHARSET_ENCODING "1"
FONTNAME_REGISTRY ""
CHARSET_COLLECTIONS "ISO8859-2 ISO8859-9 ISO8859-4 ISO10646-1"
FONT_NAME "Eight-Bit-Dragon"
FACE_NAME "Eight Bit Dragon"
COPYRIGHT "Copyright Chequered Ink Ltd. 2018"
FONT_VERSION "1.00;September 11, 2018;FontCreator 11.5.0.2422 64-bit"
FONT_ASCENT 7
FONT_DESCENT 2
UNDERLINE_POSITION 1
UNDERLINE_THICKNESS 1
X_HEIGHT 5
CAP_HEIGHT 7
RAW_ASCENT 799
RAW_DESCENT 200
NORM_SPACE 3
RELATIVE_WEIGHT 40
RELATIVE_SETWIDTH 50
SUPERSCRIPT_X 0
SUPERSCRIPT_Y 4
SUPERSCRIPT_SIZE 4
SUBSCRIPT_X 0
SUBSCRIPT_Y 0
SUBSCRIPT_SIZE 4
FIGURE_WIDTH 6
AVG_LOWERCASE_WIDTH 58
AVG_UPPERCASE_WIDTH 59
ENDPROPERTIES
CHARS 346
STARTCHAR space
ENCODING 32
SWIDTH 299 0
DWIDTH 3 0
BBX 1 1 0 0
BITMAP
00
ENDCHAR
STARTCHAR exclam
ENCODING 33
SWIDTH 299 0
DWIDTH 3 0
BBX 2 8 0 0
BITMAP
C0
C0
C0
C0
C0
C0
00
C0
ENDCHAR
STARTCHAR quotedbl
ENCODING 34
SWIDTH 599 0
DWIDTH 5 0
BBX 5 4 0 4
BITMAP
D8
D8
D8
50
ENDCHAR
STARTCHAR numbersign
ENCODING 35
SWIDTH 799 0
DWIDTH 7 0
BBX 6 8 0 0
BITMAP
68
68
FC
68
68
FC
68
68
ENDCHAR
STARTCHAR dollar
ENCODING 36
SWIDTH 699 0
DWIDTH 6 0
BBX 5 8 0 0
BITMAP
30
78
C8
F8
08
C8
78
30
ENDCHAR
STARTCHAR percent
ENCODING 37
SWIDTH 699 0
DWIDTH 6 0
BBX 5 8 0 0
BITMAP
C8
D8
18
30
60
60
C8
C8
ENDCHAR
STARTCHAR ampersand
ENCODING 38
SWIDTH 699 0
DWIDTH 6 0
BBX 5 8 0 0
BITMAP
70
D8
D8
F8
D0
D8
D8
78
ENDCHAR
STARTCHAR quotesingle
ENCODING 39
SWIDTH 299 0
DWIDTH 3 0
BBX 2 4 0 4
BITMAP
C0
C0
40
80
ENDCHAR
STARTCHAR parenleft
ENCODING 40
SWIDTH 500 0
DWIDTH 5 0
BBX 4 8 0 0
BITMAP
30
60
C0
C0
C0
C0
60
30
ENDCHAR
STARTCHAR parenright
ENCODING 41
SWIDTH 500 0
DWIDTH 5 0
BBX 4 8 0 0
BITMAP
C0
60
30
30
30
30
60
C0
ENDCHAR
STARTCHAR asterisk
ENCODING 42
SWIDTH 599 0
DWIDTH 5 0
BBX 5 4 0 4
BITMAP
20
F8
70
F8
ENDCHAR
STARTCHAR plus
ENCODING 43
SWIDTH 699 0
DWIDTH 6 0
BBX 5 4 0 2
BITMAP
30
F8
30
30
ENDCHAR
STARTCHAR comma
ENCODING 44
SWIDTH 299 0
DWIDTH 3 0
BBX 2 4 0 -1
BITMAP
C0
C0
40
80
ENDCHAR
STARTCHAR hyphen
ENCODING 45
SWIDTH 699 0
DWIDTH 6 0
BBX 5 1 0 4
BITMAP
F8
ENDCHAR
STARTCHAR period
ENCODING 46
SWIDTH 299 0
DWIDTH 3 0
BBX 2 2 0 0
BITMAP
C0
C0
ENDCHAR
STARTCHAR slash
ENCODING 47
SWIDTH 699 0
DWIDTH 6 0
BBX 5 8 0 0
BITMAP
08
18
18
30
60
60
C0
C0
ENDCHAR
STARTCHAR zero
ENCODING 48
SWIDTH 699 0
DWIDTH 6 0
BBX 5 8 0 0
BITMAP
78
C8
C8
C8
C8
C8
C8
78
ENDCHAR
STARTCHAR one
ENCODING 49
SWIDTH 699 0
DWIDTH 6 0
BBX 5 8 0 0
BITMAP
30
70
F0
30
30
30
30
F8
ENDCHAR
STARTCHAR two
ENCODING 50
SWIDTH 699 0
DWIDTH 6 0
BBX 5 8 0 0
BITMAP
78
C8
C8
78
C0
C0
C8
F8
ENDCHAR
STARTCHAR three
ENCODING 51
SWIDTH 699 0
DWIDTH 6 0
BBX 5 8 0 0
BITMAP
78
C8
C8
78
08
C8
C8
78
ENDCHAR
STARTCHAR four
ENCODING 52
SWIDTH 699 0
DWIDTH 6 0
BBX 5 8 0 0
BITMAP
C8
C8
C8
C8
C8
F8
08
08
ENDCHAR
STARTCHAR five
ENCODING 53
SWIDTH 699 0
DWIDTH 6 0
BBX 5 8 0 0
BITMAP
F8
C8
C0
F8
08
C8
C8
78
ENDCHAR
STARTCHAR six
ENCODING 54
SWIDTH 699 0
DWIDTH 6 0
BBX 5 8 0 0
BITMAP
78
C8
C8
F8
C8
C8
C8
78
ENDCHAR
STARTCHAR seven
ENCODING 55
SWIDTH 699 0
DWIDTH 6 0
BBX 5 8 0 0
BITMAP
F8
C8
08
18
30
30
60
60
ENDCHAR
STARTCHAR eight
ENCODING 56
SWIDTH 699 0
DWIDTH 6 0
BBX 5 8 0 0
BITMAP
78
C8
C8
F8
C8
C8
C8
78
ENDCHAR
STARTCHAR nine
ENCODING 57
SWIDTH 699 0
DWIDTH 6 0
BBX 5 8 0 0
BITMAP
78
C8
C8
F8
08
C8
C8
78
ENDCHAR
STARTCHAR colon
ENCODING 58
SWIDTH 299 0
DWIDTH 3 0
BBX 2 6 0 0
BITMAP
C0
C0
00
00
C0
C0
ENDCHAR
STARTCHAR semicolon
ENCODING 59
SWIDTH 299 0
DWIDTH 3 0
BBX 2 7 0 -1
BITMAP
C0
C0
00
C0
C0
40
80
ENDCHAR
STARTCHAR less
ENCODING 60
SWIDTH 599 0
DWIDTH 5 0
BBX 5 6 0 1
BITMAP
18
30
E0
60
30
18
ENDCHAR
STARTCHAR equal
ENCODING 61
SWIDTH 699 0
DWIDTH 6 0
BBX 5 2 0 3
BITMAP
F8
F8
ENDCHAR
STARTCHAR greater
ENCODING 62
SWIDTH 599 0
DWIDTH 5 0
BBX 5 6 0 1
BITMAP
C0
60
38
30
60
C0
ENDCHAR
STARTCHAR question
ENCODING 63
SWIDTH 699 0
DWIDTH 6 0
BBX 5 8 0 0
BITMAP
78
C8
08
38
60
60
00
60
ENDCHAR
STARTCHAR at
ENCODING 64
SWIDTH 799 0
DWIDTH 7 0
BBX 6 8 0 0
BITMAP
78
CC
CC
CC
D8
C0
CC
78
ENDCHAR
STARTCHAR A
ENCODING 65
SWIDTH 699 0
DWIDTH 6 0
BBX 5 8 0 0
BITMAP
30
78
C8
C8
F8
C8
C8
C8
ENDCHAR
STARTCHAR B
ENCODING 66
SWIDTH 699 0
DWIDTH 6 0
BBX 5 8 0 0
BITMAP
F8
C8
C8
F8
C8
C8
C8
F8
ENDCHAR
STARTCHAR C
ENCODING 67
SWIDTH 699 0
DWIDTH 6 0
BBX 5 8 0 0
BITMAP
78
C8
C8
C0
C0
C8
C8
78
ENDCHAR
STARTCHAR D
ENCODING 68
SWIDTH 699 0
DWIDTH 6 0
BBX 5 8 0 0
BITMAP
F8
C8
C8
C8
C8
C8
C8
F8
ENDCHAR
STARTCHAR E
ENCODING 69
SWIDTH 699 0
DWIDTH 6 0
BBX 5 8 0 0
BITMAP
F8
C0
C0
F8
C0
C0
C0
F8
ENDCHAR
STARTCHAR F
ENCODING 70
SWIDTH 699 0
DWIDTH 6 0
BBX 5 8 0 0
BITMAP
F8
C0
C0
F8
C0
C0
C0
C0
ENDCHAR
STARTCHAR G
ENCODING 71
SWIDTH 699 0
DWIDTH 6 0
BBX 5 8 0 0
BITMAP
78
C8
C8
D8
C8
C8
C8
78
ENDCHAR
STARTCHAR H
ENCODING 72
SWIDTH 699 0
DWIDTH 6 0
BBX 5 8 0 0
BITMAP
C8
C8
C8
F8
C8
C8
C8
C8
ENDCHAR
STARTCHAR I
ENCODING 73
SWIDTH 299 0
DWIDTH 3 0
BBX 2 8 0 0
BITMAP
C0
C0
C0
C0
C0
C0
C0
C0
ENDCHAR
STARTCHAR J
ENCODING 74
SWIDTH 699 0
DWIDTH 6 0
BBX 5 8 0 0
BITMAP
08
08
08
08
08
C8
C8
78
ENDCHAR
STARTCHAR K
ENCODING 75
SWIDTH 699 0
DWIDTH 6 0
BBX 5 8 0 0
BITMAP
C8
C8
C8
F8
C8
C8
C8
C8
ENDCHAR
STARTCHAR L
ENCODING 76
SWIDTH 699 0
DWIDTH 6 0
BBX 5 8 0 0
BITMAP
C0
C0
C0
C0
C0
C0
C0
F8
ENDCHAR
STARTCHAR M
ENCODING 77
SWIDTH 799 0
DWIDTH 7 0
BBX 6 8 0 0
BITMAP
CC
EC
FC
DC
CC
CC
CC
CC
ENDCHAR
STARTCHAR N
ENCODING 78
SWIDTH 699 0
DWIDTH 6 0
BBX 5 8 0 0
BITMAP
C8
C8
E8
F8
C8
C8
C8
C8
ENDCHAR
STARTCHAR O
ENCODING 79
SWIDTH 699 0
DWIDTH 6 0
BBX 5 8 0 0
BITMAP
78
C8
C8
C8
C8
C8
C8
78
ENDCHAR
STARTCHAR P
ENCODING 80
SWIDTH 699 0
DWIDTH 6 0
BBX 5 8 0 0
BITMAP
F8
C8
C8
F8
C0
C0
C0
C0
ENDCHAR
STARTCHAR Q
ENCODING 81
SWIDTH 699 0
DWIDTH 6 0
BBX 5 8 0 0
BITMAP
78
C8
C8
C8
C8
C8
D0
68
ENDCHAR
STARTCHAR R
ENCODING 82
SWIDTH 699 0
DWIDTH 6 0
BBX 5 8 0 0
BITMAP
F8
C8
C8
F8
C8
C8
C8
C8
ENDCHAR
STARTCHAR S
ENCODING 83
SWIDTH 699 0
DWIDTH 6 0
BBX 5 8 0 0
BITMAP
78
C8
C0
F8
08
08
C8
78
ENDCHAR
STARTCHAR T
ENCODING 84
SWIDTH 699 0
DWIDTH 6 0
BBX 5 8 0 0
BITMAP
F8
30
30
30
30
30
30
30
ENDCHAR
STARTCHAR U
ENCODING 85
SWIDTH 699 0
DWIDTH 6 0
BBX 5 8 0 0
BITMAP
C8
C8
C8
C8
C8
C8
C8
78
ENDCHAR
STARTCHAR V
ENCODING 86
SWIDTH 699 0
DWIDTH 6 0
BBX 5 8 0 0
BITMAP
C8
C8
C8
C8
C8
C8
68
30
ENDCHAR
STARTCHAR W
ENCODING 87
SWIDTH 799 0
DWIDTH 7 0
BBX 6 8 0 0
BITMAP
CC
CC
CC
CC
DC
FC
EC
CC
ENDCHAR
STARTCHAR X
ENCODING 88
SWIDTH 699 0
DWIDTH 6 0
BBX 5 8 0 0
BITMAP
C8
C8
C8
F8
C8
C8
C8
C8
ENDCHAR
STARTCHAR Y
ENCODING 89
SWIDTH 699 0
DWIDTH 6 0
BBX 5 8 0 0
BITMAP
C8
C8
C8
F8
30
30
30
30
ENDCHAR
STARTCHAR Z
ENCODING 90
SWIDTH 699 0
DWIDTH 6 0
BBX 5 8 0 0
BITMAP
F8
08
08
38
60
C0
C0
F8
ENDCHAR
STARTCHAR bracketleft
ENCODING 91
SWIDTH 399 0
DWIDTH 4 0
BBX 3 8 0 0
BITMAP
E0
C0
C0
C0
C0
C0
C0
E0
ENDCHAR
STARTCHAR backslash
ENCODING 92
SWIDTH 699 0
DWIDTH 6 0
BBX 5 8 0 0
BITMAP
C0
60
60
30
18
18
08
08
ENDCHAR
STARTCHAR bracketright
ENCODING 93
SWIDTH 399 0
DWIDTH 4 0
BBX 3 8 0 0
BITMAP
E0
60
60
60
60
60
60
E0
ENDCHAR
STARTCHAR asciicircum
ENCODING 94
SWIDTH 699 0
DWIDTH 6 0
BBX 5 4 0 4
BITMAP
30
78
C8
C8
ENDCHAR
STARTCHAR underscore
ENCODING 95
SWIDTH 699 0
DWIDTH 6 0
BBX 5 1 0 0
BITMAP
F8
ENDCHAR
STARTCHAR grave
ENCODING 96
SWIDTH 399 0
DWIDTH 4 0
BBX 3 2 0 6
BITMAP
C0
60
ENDCHAR
STARTCHAR a
ENCODING 97
SWIDTH 699 0
DWIDTH 6 0
BBX 5 6 0 0
BITMAP
78
78
C8
C8
C8
78
ENDCHAR
STARTCHAR b
ENCODING 98
SWIDTH 699 0
DWIDTH 6 0
BBX 5 8 0 0
BITMAP
C0
C0
F8
C8
C8
C8
C8
B8
ENDCHAR
STARTCHAR c
ENCODING 99
SWIDTH 699 0
DWIDTH 6 0
BBX 5 6 0 0
BITMAP
78
C8
C0
C8
C8
78
ENDCHAR
STARTCHAR d
ENCODING 100
SWIDTH 699 0
DWIDTH 6 0
BBX 5 8 0 0
BITMAP
08
08
78
C8
C8
C8
C8
78
ENDCHAR
STARTCHAR e
ENCODING 101
SWIDTH 699 0
DWIDTH 6 0
BBX 5 6 0 0
BITMAP
78
C8
F8
C0
C8
78
ENDCHAR
STARTCHAR f
ENCODING 102
SWIDTH 699 0
DWIDTH 6 0
BBX 5 7 0 0
BITMAP
78
C8
C8
F0
C0
C0
C0
ENDCHAR
STARTCHAR g
ENCODING 103
SWIDTH 699 0
DWIDTH 6 0
BBX 5 7 0 -1
BITMAP
78
C8
C8
C8
78
08
78
ENDCHAR
STARTCHAR h
ENCODING 104
SWIDTH 699 0
DWIDTH 6 0
BBX 5 8 0 0
BITMAP
C0
C0
F8
C8
C8
C8
C8
C8
ENDCHAR
STARTCHAR i
ENCODING 105
SWIDTH 299 0
DWIDTH 3 0
BBX 2 8 0 0
BITMAP
C0
00
C0
C0
C0
C0
C0
C0
ENDCHAR
STARTCHAR j
ENCODING 106
SWIDTH 399 0
DWIDTH 4 0
BBX 3 9 0 -1
BITMAP
60
00
60
60
60
60
60
60
C0
ENDCHAR
STARTCHAR k
ENCODING 107
SWIDTH 699 0
DWIDTH 6 0
BBX 5 8 0 0
BITMAP
C0
C0
C8
C8
F8
C8
C8
C8
ENDCHAR
STARTCHAR l
ENCODING 108
SWIDTH 299 0
DWIDTH 3 0
BBX 2 8 0 0
BITMAP
C0
C0
C0
C0
C0
C0
C0
C0
ENDCHAR
STARTCHAR m
ENCODING 109
SWIDTH 799 0
DWIDTH 7 0
BBX 6 6 0 0
BITMAP
68
FC
DC
DC
DC
DC
ENDCHAR
STARTCHAR n
ENCODING 110
SWIDTH 699 0
DWIDTH 6 0
BBX 5 6 0 0
BITMAP
F8
C8
C8
C8
C8
C8
ENDCHAR
STARTCHAR o
ENCODING 111
SWIDTH 699 0
DWIDTH 6 0
BBX 5 6 0 0
BITMAP
78
C8
C8
C8
C8
78
ENDCHAR
STARTCHAR p
ENCODING 112
SWIDTH 699 0
DWIDTH 6 0
BBX 5 7 0 -1
BITMAP
B8
C8
C8
C8
F8
C0
C0
ENDCHAR
STARTCHAR q
ENCODING 113
SWIDTH 699 0
DWIDTH 6 0
BBX 5 7 0 -1
BITMAP
78
C8
C8
C8
78
08
08
ENDCHAR
STARTCHAR r
ENCODING 114
SWIDTH 699 0
DWIDTH 6 0
BBX 5 6 0 0
BITMAP
B8
C8
C0
C0
C0
C0
ENDCHAR
STARTCHAR s
ENCODING 115
SWIDTH 699 0
DWIDTH 6 0
BBX 5 6 0 0
BITMAP
78
C8
78
08
C8
78
ENDCHAR
STARTCHAR t
ENCODING 116
SWIDTH 699 0
DWIDTH 6 0
BBX 5 7 0 0
BITMAP
60
60
F8
60
60
60
38
ENDCHAR
STARTCHAR u
ENCODING 117
SWIDTH 699 0
DWIDTH 6 0
BBX 5 6 0 0
BITMAP
C8
C8
C8
C8
C8
78
ENDCHAR
STARTCHAR v
ENCODING 118
SWIDTH 699 0
DWIDTH 6 0
BBX 5 6 0 0
BITMAP
C8
C8
C8
C8
68
30
ENDCHAR
STARTCHAR w
ENCODING 119
SWIDTH 799 0
DWIDTH 7 0
BBX 6 6 0 0
BITMAP
CC
DC
DC
DC
FC
68
ENDCHAR
STARTCHAR x
ENCODING 120
SWIDTH 699 0
DWIDTH 6 0
BBX 5 6 0 0
BITMAP
C8
C8
78
C8
C8
C8
ENDCHAR
STARTCHAR y
ENCODING 121
SWIDTH 699 0
DWIDTH 6 0
BBX 5 7 0 -1
BITMAP
C8
C8
C8
C8
78
08
78
ENDCHAR
STARTCHAR z
ENCODING 122
SWIDTH 699 0
DWIDTH 6 0
BBX 5 6 0 0
BITMAP
F8
18
30
60
C0
F8
ENDCHAR
STARTCHAR braceleft
ENCODING 123
SWIDTH 500 0
DWIDTH 5 0
BBX 4 8 0 0
BITMAP
30
60
60
F0
30
60
60
30
ENDCHAR
STARTCHAR bar
ENCODING 124
SWIDTH 299 0
DWIDTH 3 0
BBX 2 8 0 0
BITMAP
C0
C0
C0
C0
C0
C0
C0
C0
ENDCHAR
STARTCHAR braceright
ENCODING 125
SWIDTH 500 0
DWIDTH 5 0
BBX 4 8 0 0
BITMAP
C0
60
60
F0
C0
60
60
C0
ENDCHAR
STARTCHAR asciitilde
ENCODING 126
SWIDTH 699 0
DWIDTH 6 0
BBX 5 2 0 3
BITMAP
F8
D8
ENDCHAR
STARTCHAR uni00A0
ENCODING 160
SWIDTH 299 0
DWIDTH 3 0
BBX 1 1 0 0
BITMAP
00
ENDCHAR
STARTCHAR exclamdown
ENCODING 161
SWIDTH 299 0
DWIDTH 3 0
BBX 2 8 0 -1
BITMAP
C0
00
C0
C0
C0
C0
C0
C0
ENDCHAR
STARTCHAR cent
ENCODING 162
SWIDTH 699 0
DWIDTH 6 0
BBX 5 8 0 0
BITMAP
30
78
C8
C8
C8
C8
78
30
ENDCHAR
STARTCHAR sterling
ENCODING 163
SWIDTH 699 0
DWIDTH 6 0
BBX 5 8 0 0
BITMAP
38
68
68
F8
60
60
68
78
ENDCHAR
STARTCHAR currency
ENCODING 164
SWIDTH 699 0
DWIDTH 6 0
BBX 5 5 0 1
BITMAP
C8
F8
48
F8
C8
ENDCHAR
STARTCHAR yen
ENCODING 165
SWIDTH 699 0
DWIDTH 6 0
BBX 5 8 0 0
BITMAP
C8
C8
C8
78
F8
30
F8
30
ENDCHAR
STARTCHAR brokenbar
ENCODING 166
SWIDTH 299 0
DWIDTH 3 0
BBX 2 8 0 0
BITMAP
C0
C0
C0
C0
C0
C0
C0
C0
ENDCHAR
STARTCHAR section
ENCODING 167
SWIDTH 699 0
DWIDTH 6 0
BBX 5 8 0 0
BITMAP
78
C8
C0
F8
78
08
C8
78
ENDCHAR
STARTCHAR dieresis
ENCODING 168
SWIDTH 699 0
DWIDTH 6 0
BBX 5 1 0 7
BITMAP
C8
ENDCHAR
STARTCHAR copyright
ENCODING 169
SWIDTH 799 0
DWIDTH 7 0
BBX 6 8 0 0
BITMAP
78
CC
BC
AC
AC
BC
CC
78
ENDCHAR
STARTCHAR ordfeminine
ENCODING 170
SWIDTH 699 0
DWIDTH 6 0
BBX 5 6 0 2
BITMAP
78
08
78
C8
C8
78
ENDCHAR
STARTCHAR guillemotleft
ENCODING 171
SWIDTH 799 0
DWIDTH 7 0
BBX 6 4 0 2
BITMAP
3C
F8
68
3C
ENDCHAR
STARTCHAR logicalnot
ENCODING 172
SWIDTH 699 0
DWIDTH 6 0
BBX 5 3 0 2
BITMAP
F8
08
08
ENDCHAR
STARTCHAR uni00AD
ENCODING 173
SWIDTH 699 0
DWIDTH 6 0
BBX 5 1 0 4
BITMAP
F8
ENDCHAR
STARTCHAR registered
ENCODING 174
SWIDTH 799 0
DWIDTH 7 0
BBX 6 8 0 0
BITMAP
78
CC
BC
BC
AC
AC
CC
78
ENDCHAR
STARTCHAR macron
ENCODING 175
SWIDTH 699 0
DWIDTH 6 0
BBX 5 1 0 7
BITMAP
F8
ENDCHAR
STARTCHAR degree
ENCODING 176
SWIDTH 599 0
DWIDTH 5 0
BBX 5 4 0 4
BITMAP
70
D8
D8
F8
ENDCHAR
STARTCHAR plusminus
ENCODING 177
SWIDTH 699 0
DWIDTH 6 0
BBX 5 6 0 0
BITMAP
30
F8
30
30
00
F8
ENDCHAR
STARTCHAR uni00B2
ENCODING 178
SWIDTH 699 0
DWIDTH 6 0
BBX 5 6 0 2
BITMAP
78
C8
08
F8
C0
F8
ENDCHAR
STARTCHAR uni00B3
ENCODING 179
SWIDTH 699 0
DWIDTH 6 0
BBX 5 6 0 2
BITMAP
78
C8
08
78
C8
78
ENDCHAR
STARTCHAR acute
ENCODING 180
SWIDTH 399 0
DWIDTH 4 0
BBX 3 2 0 6
BITMAP
60
C0
ENDCHAR
STARTCHAR mu
ENCODING 181
SWIDTH 699 0
DWIDTH 6 0
BBX 5 7 0 -1
BITMAP
C8
C8
C8
C8
C8
F8
C0
ENDCHAR
STARTCHAR paragraph
ENCODING 182
SWIDTH 699 0
DWIDTH 6 0
BBX 5 8 0 0
BITMAP
78
E8
E8
E8
28
28
28
28
ENDCHAR
STARTCHAR periodcentered
ENCODING 183
SWIDTH 299 0
DWIDTH 3 0
BBX 2 1 0 4
BITMAP
C0
ENDCHAR
STARTCHAR cedilla
ENCODING 184
SWIDTH 399 0
DWIDTH 4 0
BBX 3 2 0 -1
BITMAP
60
C0
ENDCHAR
STARTCHAR uni00B9
ENCODING 185
SWIDTH 699 0
DWIDTH 6 0
BBX 5 6 0 2
BITMAP
30
70
F0
30
30
F8
ENDCHAR
STARTCHAR ordmasculine
ENCODING 186
SWIDTH 699 0
DWIDTH 6 0
BBX 5 6 0 2
BITMAP
78
C8
C8
C8
C8
78
ENDCHAR
STARTCHAR guillemotright
ENCODING 187
SWIDTH 799 0
DWIDTH 7 0
BBX 6 4 0 2
BITMAP
D8
7C
68
D8
ENDCHAR
STARTCHAR onequarter
ENCODING 188
SWIDTH 799 0
DWIDTH 7 0
BBX 6 8 0 0
BITMAP
C0
40
40
EC
0C
0C
04
04
ENDCHAR
STARTCHAR onehalf
ENCODING 189
SWIDTH 799 0
DWIDTH 7 0
BBX 6 8 0 0
BITMAP
C0
40
40
EC
04
0C
08
0C
ENDCHAR
STARTCHAR threequarters
ENCODING 190
SWIDTH 799 0
DWIDTH 7 0
BBX 6 8 0 0
BITMAP
E0
20
E0
EC
0C
0C
04
04
ENDCHAR
STARTCHAR questiondown
ENCODING 191
SWIDTH 699 0
DWIDTH 6 0
BBX 5 8 0 -1
BITMAP
18
00
18
70
C0
C0
C8
78
ENDCHAR
STARTCHAR Agrave
ENCODING 192
SWIDTH 699 0
DWIDTH 6 0
BBX 5 8 0 0
BITMAP
60
30
00
F8
C8
F8
C8
C8
ENDCHAR
STARTCHAR Aacute
ENCODING 193
SWIDTH 699 0
DWIDTH 6 0
BBX 5 8 0 0
BITMAP
18
30
00
F8
C8
F8
C8
C8
ENDCHAR
STARTCHAR Acircumflex
ENCODING 194
SWIDTH 699 0
DWIDTH 6 0
BBX 5 8 0 0
BITMAP
30
68
00
F8
C8
F8
C8
C8
ENDCHAR
STARTCHAR Atilde
ENCODING 195
SWIDTH 699 0
DWIDTH 6 0
BBX 5 8 0 0
BITMAP
78
D8
00
F8
C8
F8
C8
C8
ENDCHAR
STARTCHAR Adieresis
ENCODING 196
SWIDTH 699 0
DWIDTH 6 0
BBX 5 8 0 0
BITMAP
C8
00
30
F8
C8
F8
C8
C8
ENDCHAR
STARTCHAR Aring
ENCODING 197
SWIDTH 699 0
DWIDTH 6 0
BBX 5 8 0 0
BITMAP
30
48
30
F8
C8
F8
C8
C8
ENDCHAR
STARTCHAR AE
ENCODING 198
SWIDTH 799 0
DWIDTH 7 0
BBX 6 8 0 0
BITMAP
3C
78
D8
FC
D8
D8
D8
DC
ENDCHAR
STARTCHAR Ccedilla
ENCODING 199
SWIDTH 699 0
DWIDTH 6 0
BBX 5 9 0 -1
BITMAP
78
C8
C8
C0
C8
C8
78
30
60
ENDCHAR
STARTCHAR Egrave
ENCODING 200
SWIDTH 699 0
DWIDTH 6 0
BBX 5 8 0 0
BITMAP
60
30
00
F8
F8
C0
C0
F8
ENDCHAR
STARTCHAR Eacute
ENCODING 201
SWIDTH 699 0
DWIDTH 6 0
BBX 5 8 0 0
BITMAP
18
30
00
F8
F8
C0
C0
F8
ENDCHAR
STARTCHAR Ecircumflex
ENCODING 202
SWIDTH 699 0
DWIDTH 6 0
BBX 5 8 0 0
BITMAP
30
68
00
F8
F8
C0
C0
F8
ENDCHAR
STARTCHAR Edieresis
ENCODING 203
SWIDTH 699 0
DWIDTH 6 0
BBX 5 8 0 0
BITMAP
C8
00
F8
C0
F8
C0
C0
F8
ENDCHAR
STARTCHAR Igrave
ENCODING 204
SWIDTH 399 0
DWIDTH 4 0
BBX 3 8 0 0
BITMAP
C0
60
00
60
60
60
60
60
ENDCHAR
STARTCHAR Iacute
ENCODING 205
SWIDTH 399 0
DWIDTH 4 0
BBX 3 8 0 0
BITMAP
60
C0
00
C0
C0
C0
C0
C0
ENDCHAR
STARTCHAR Icircumflex
ENCODING 206
SWIDTH 500 0
DWIDTH 5 0
BBX 4 8 0 0
BITMAP
60
D0
00
60
60
60
60
60
ENDCHAR
STARTCHAR Idieresis
ENCODING 207
SWIDTH 599 0
DWIDTH 5 0
BBX 5 8 0 0
BITMAP
C8
00
30
30
30
30
30
30
ENDCHAR
STARTCHAR Eth
ENCODING 208
SWIDTH 799 0
DWIDTH 7 0
BBX 6 8 0 0
BITMAP
78
6C
6C
FC
6C
6C
6C
78
ENDCHAR
STARTCHAR Ntilde
ENCODING 209
SWIDTH 699 0
DWIDTH 6 0
BBX 5 8 0 0
BITMAP
78
D8
00
E8
F8
D8
C8
C8
ENDCHAR
STARTCHAR Ograve
ENCODING 210
SWIDTH 699 0
DWIDTH 6 0
BBX 5 8 0 0
BITMAP
60
30
00
F8
C8
C8
C8
78
ENDCHAR
STARTCHAR Oacute
ENCODING 211
SWIDTH 699 0
DWIDTH 6 0
BBX 5 8 0 0
BITMAP
18
30
00
F8
C8
C8
C8
78
ENDCHAR
STARTCHAR Ocircumflex
ENCODING 212
SWIDTH 699 0
DWIDTH 6 0
BBX 5 8 0 0
BITMAP
30
68
00
F8
C8
C8
C8
78
ENDCHAR
STARTCHAR Otilde
ENCODING 213
SWIDTH 699 0
DWIDTH 6 0
BBX 5 8 0 0
BITMAP
78
D8
00
F8
C8
C8
C8
78
ENDCHAR
STARTCHAR Odieresis
ENCODING 214
SWIDTH 699 0
DWIDTH 6 0
BBX 5 8 0 0
BITMAP
C8
00
78
C8
C8
C8
C8
78
ENDCHAR
STARTCHAR multiply
ENCODING 215
SWIDTH 699 0
DWIDTH 6 0
BBX 5 4 0 2
BITMAP
C8
78
78
C8
ENDCHAR
STARTCHAR Oslash
ENCODING 216
SWIDTH 699 0
DWIDTH 6 0
BBX 5 8 0 0
BITMAP
78
C8
C8
F8
E8
C8
48
B8
ENDCHAR
STARTCHAR Ugrave
ENCODING 217
SWIDTH 699 0
DWIDTH 6 0
BBX 5 8 0 0
BITMAP
60
30
00
C8
C8
C8
C8
78
ENDCHAR
STARTCHAR Uacute
ENCODING 218
SWIDTH 699 0
DWIDTH 6 0
BBX 5 8 0 0
BITMAP
18
30
00
C8
C8
C8
C8
78
ENDCHAR
STARTCHAR Ucircumflex
ENCODING 219
SWIDTH 699 0
DWIDTH 6 0
BBX 5 8 0 0
BITMAP
30
68
00
C8
C8
C8
C8
78
ENDCHAR
STARTCHAR Udieresis
ENCODING 220
SWIDTH 699 0
DWIDTH 6 0
BBX 5 8 0 0
BITMAP
C8
00
C8
C8
C8
C8
C8
78
ENDCHAR
STARTCHAR Yacute
ENCODING 221
SWIDTH 699 0
DWIDTH 6 0
BBX 5 8 0 0
BITMAP
18
30
00
C8
C8
78
30
30
ENDCHAR
STARTCHAR Thorn
ENCODING 222
SWIDTH 699 0
DWIDTH 6 0
BBX 5 8 0 0
BITMAP
C0
F8
C8
C8
C8
C8
F8
C0
ENDCHAR
STARTCHAR germandbls
ENCODING 223
SWIDTH 699 0
DWIDTH 6 0
BBX 5 8 0 0
BITMAP
78
C8
C8
D8
C8
C8
C8
D8
ENDCHAR
STARTCHAR agrave
ENCODING 224
SWIDTH 699 0
DWIDTH 6 0
BBX 5 8 0 0
BITMAP
60
30
00
78
78
C8
C8
78
ENDCHAR
STARTCHAR aacute
ENCODING 225
SWIDTH 699 0
DWIDTH 6 0
BBX 5 8 0 0
BITMAP
18
30
00
78
78
C8
C8
78
ENDCHAR
STARTCHAR acircumflex
ENCODING 226
SWIDTH 699 0
DWIDTH 6 0
BBX 5 8 0 0
BITMAP
30
68
00
78
78
C8
C8
78
ENDCHAR
STARTCHAR atilde
ENCODING 227
SWIDTH 699 0
DWIDTH 6 0
BBX 5 8 0 0
BITMAP
78
D8
00
78
78
C8
C8
78
ENDCHAR
STARTCHAR adieresis
ENCODING 228
SWIDTH 699 0
DWIDTH 6 0
BBX 5 8 0 0
BITMAP
C8
00
78
78
C8
C8
C8
78
ENDCHAR
STARTCHAR aring
ENCODING 229
SWIDTH 699 0
DWIDTH 6 0
BBX 5 8 0 0
BITMAP
30
48
78
78
C8
C8
C8
78
ENDCHAR
STARTCHAR ae
ENCODING 230
SWIDTH 799 0
DWIDTH 7 0
BBX 6 6 0 0
BITMAP
78
7C
DC
D8
DC
68
ENDCHAR
STARTCHAR ccedilla
ENCODING 231
SWIDTH 699 0
DWIDTH 6 0
BBX 5 8 0 -1
BITMAP
78
C8
C8
C8
C8
78
30
60
ENDCHAR
STARTCHAR egrave
ENCODING 232
SWIDTH 699 0
DWIDTH 6 0
BBX 5 8 0 0
BITMAP
60
30
00
F8
F8
C0
C8
78
ENDCHAR
STARTCHAR eacute
ENCODING 233
SWIDTH 699 0
DWIDTH 6 0
BBX 5 8 0 0
BITMAP
18
30
00
F8
F8
C0
C8
78
ENDCHAR
STARTCHAR ecircumflex
ENCODING 234
SWIDTH 699 0
DWIDTH 6 0
BBX 5 8 0 0
BITMAP
30
68
00
F8
F8
C0
C8
78
ENDCHAR
STARTCHAR edieresis
ENCODING 235
SWIDTH 699 0
DWIDTH 6 0
BBX 5 8 0 0
BITMAP
C8
00
78
C8
F8
C0
C8
78
ENDCHAR
STARTCHAR igrave
ENCODING 236
SWIDTH 399 0
DWIDTH 4 0
BBX 3 8 0 0
BITMAP
C0
60
00
60
60
60
60
60
ENDCHAR
STARTCHAR iacute
ENCODING 237
SWIDTH 399 0
DWIDTH 4 0
BBX 3 8 0 0
BITMAP
60
C0
00
C0
C0
C0
C0
C0
ENDCHAR
STARTCHAR icircumflex
ENCODING 238
SWIDTH 500 0
DWIDTH 5 0
BBX 4 8 0 0
BITMAP
60
D0
00
60
60
60
60
60
ENDCHAR
STARTCHAR idieresis
ENCODING 239
SWIDTH 699 0
DWIDTH 6 0
BBX 5 8 0 0
BITMAP
C8
00
30
30
30
30
30
30
ENDCHAR
STARTCHAR eth
ENCODING 240
SWIDTH 699 0
DWIDTH 6 0
BBX 5 8 0 0
BITMAP
68
30
58
78
C8
C8
C8
78
ENDCHAR
STARTCHAR ntilde
ENCODING 241
SWIDTH 699 0
DWIDTH 6 0
BBX 5 8 0 0
BITMAP
78
D8
00
F8
C8
C8
C8
C8
ENDCHAR
STARTCHAR ograve
ENCODING 242
SWIDTH 699 0
DWIDTH 6 0
BBX 5 8 0 0
BITMAP
60
30
00
F8
C8
C8
C8
78
ENDCHAR
STARTCHAR oacute
ENCODING 243
SWIDTH 699 0
DWIDTH 6 0
BBX 5 8 0 0
BITMAP
18
30
00
F8
C8
C8
C8
78
ENDCHAR
STARTCHAR ocircumflex
ENCODING 244
SWIDTH 699 0
DWIDTH 6 0
BBX 5 8 0 0
BITMAP
30
68
00
F8
C8
C8
C8
78
ENDCHAR
STARTCHAR otilde
ENCODING 245
SWIDTH 699 0
DWIDTH 6 0
BBX 5 8 0 0
BITMAP
78
D8
00
F8
C8
C8
C8
78
ENDCHAR
STARTCHAR odieresis
ENCODING 246
SWIDTH 699 0
DWIDTH 6 0
BBX 5 8 0 0
BITMAP
C8
00
78
C8
C8
C8
C8
78
ENDCHAR
STARTCHAR divide
ENCODING 247
SWIDTH 699 0
DWIDTH 6 0
BBX 5 6 0 1
BITMAP
30
30
F8
00
30
30
ENDCHAR
STARTCHAR oslash
ENCODING 248
SWIDTH 699 0
DWIDTH 6 0
BBX 5 6 0 0
BITMAP
78
D8
F8
E8
48
B8
ENDCHAR
STARTCHAR ugrave
ENCODING 249
SWIDTH 699 0
DWIDTH 6 0
BBX 5 8 0 0
BITMAP
60
30
00
C8
C8
C8
C8
78
ENDCHAR
STARTCHAR uacute
ENCODING 250
SWIDTH 699 0
DWIDTH 6 0
BBX 5 8 0 0
BITMAP
18
30
00
C8
C8
C8
C8
78
ENDCHAR
STARTCHAR ucircumflex
ENCODING 251
SWIDTH 699 0
DWIDTH 6 0
BBX 5 8 0 0
BITMAP
30
68
00
C8
C8
C8
C8
78
ENDCHAR
STARTCHAR udieresis
ENCODING 252
SWIDTH 699 0
DWIDTH 6 0
BBX 5 8 0 0
BITMAP
C8
00
C8
C8
C8
C8
C8
78
ENDCHAR
STARTCHAR yacute
ENCODING 253
SWIDTH 699 0
DWIDTH 6 0
BBX 5 9 0 -1
BITMAP
18
30
00
C8
C8
C8
78
08
78
ENDCHAR
STARTCHAR thorn
ENCODING 254
SWIDTH 699 0
DWIDTH 6 0
BBX 5 8 0 -1
BITMAP
C0
D8
E8
C8
C8
E8
D8
C0
ENDCHAR
STARTCHAR ydieresis
ENCODING 255
SWIDTH 699 0
DWIDTH 6 0
BBX 5 9 0 -1
BITMAP
C8
00
C8
C8
C8
C8
78
08
78
ENDCHAR
STARTCHAR Amacron
ENCODING 256
SWIDTH 699 0
DWIDTH 6 0
BBX 5 8 0 0
BITMAP
F8
00
30
F8
C8
F8
C8
C8
ENDCHAR
STARTCHAR amacron
ENCODING 257
SWIDTH 699 0
DWIDTH 6 0
BBX 5 8 0 0
BITMAP
F8
00
78
78
C8
C8
C8
78
ENDCHAR
STARTCHAR Abreve
ENCODING 258
SWIDTH 699 0
DWIDTH 6 0
BBX 5 8 0 0
BITMAP
48
30
00
F8
C8
F8
C8
C8
ENDCHAR
STARTCHAR abreve
ENCODING 259
SWIDTH 699 0
DWIDTH 6 0
BBX 5 8 0 0
BITMAP
48
30
00
78
78
C8
C8
78
ENDCHAR
STARTCHAR Aogonek
ENCODING 260
SWIDTH 699 0
DWIDTH 6 0
BBX 5 9 0 -1
BITMAP
30
78
C8
F8
C8
C8
C8
18
08
ENDCHAR
STARTCHAR aogonek
ENCODING 261
SWIDTH 699 0
DWIDTH 6 0
BBX 5 8 0 -1
BITMAP
78
08
F8
C8
C8
78
18
08
ENDCHAR
STARTCHAR Cacute
ENCODING 262
SWIDTH 699 0
DWIDTH 6 0
BBX 5 8 0 0
BITMAP
18
30
00
F8
C0
C0
C8
78
ENDCHAR
STARTCHAR cacute
ENCODING 263
SWIDTH 699 0
DWIDTH 6 0
BBX 5 8 0 0
BITMAP
18
30
00
F8
C0
C0
C8
78
ENDCHAR
STARTCHAR Ccircumflex
ENCODING 264
SWIDTH 699 0
DWIDTH 6 0
BBX 5 8 0 0
BITMAP
30
68
00
F8
C0
C0
C8
78
ENDCHAR
STARTCHAR ccircumflex
ENCODING 265
SWIDTH 699 0
DWIDTH 6 0
BBX 5 8 0 0
BITMAP
30
68
00
F8
C0
C0
C8
78
ENDCHAR
STARTCHAR Cdotaccent
ENCODING 266
SWIDTH 699 0
DWIDTH 6 0
BBX 5 8 0 0
BITMAP
30
00
78
C8
C0
C8
C8
78
ENDCHAR
STARTCHAR cdotaccent
ENCODING 267
SWIDTH 699 0
DWIDTH 6 0
BBX 5 8 0 0
BITMAP
30
00
78
C8
C0
C8
C8
78
ENDCHAR
STARTCHAR Ccaron
ENCODING 268
SWIDTH 699 0
DWIDTH 6 0
BBX 5 8 0 0
BITMAP
68
30
00
F8
C0
C0
C8
78
ENDCHAR
STARTCHAR ccaron
ENCODING 269
SWIDTH 699 0
DWIDTH 6 0
BBX 5 8 0 0
BITMAP
68
30
00
F8
C0
C0
C8
78
ENDCHAR
STARTCHAR Dcaron
ENCODING 270
SWIDTH 699 0
DWIDTH 6 0
BBX 5 8 0 0
BITMAP
68
30
00
F8
C8
C8
C8
F8
ENDCHAR
STARTCHAR dcaron
ENCODING 271
SWIDTH 799 0
DWIDTH 7 0
BBX 6 8 0 0
BITMAP
1C
1C
7C
D8
D8
D8
D8
68
ENDCHAR
STARTCHAR Dcroat
ENCODING 272
SWIDTH 799 0
DWIDTH 7 0
BBX 6 8 0 0
BITMAP
78
6C
6C
FC
6C
6C
6C
78
ENDCHAR
STARTCHAR dcroat
ENCODING 273
SWIDTH 799 0
DWIDTH 7 0
BBX 6 8 0 0
BITMAP
08
3C
08
F8
C8
C8
C8
78
ENDCHAR
STARTCHAR Emacron
ENCODING 274
SWIDTH 699 0
DWIDTH 6 0
BBX 5 8 0 0
BITMAP
F8
00
F8
C0
F8
C0
C0
F8
ENDCHAR
STARTCHAR emacron
ENCODING 275
SWIDTH 699 0
DWIDTH 6 0
BBX 5 8 0 0
BITMAP
F8
00
78
C8
F8
C0
C8
78
ENDCHAR
STARTCHAR Ebreve
ENCODING 276
SWIDTH 699 0
DWIDTH 6 0
BBX 5 8 0 0
BITMAP
48
30
00
F8
F8
C0
C0
F8
ENDCHAR
STARTCHAR ebreve
ENCODING 277
SWIDTH 699 0
DWIDTH 6 0
BBX 5 8 0 0
BITMAP
48
30
00
F8
F8
C0
C8
78
ENDCHAR
STARTCHAR Edotaccent
ENCODING 278
SWIDTH 699 0
DWIDTH 6 0
BBX 5 8 0 0
BITMAP
30
00
F8
C0
F8
C0
C0
F8
ENDCHAR
STARTCHAR edotaccent
ENCODING 279
SWIDTH 699 0
DWIDTH 6 0
BBX 5 8 0 0
BITMAP
30
00
78
C8
F8
C0
C8
78
ENDCHAR
STARTCHAR Eogonek
ENCODING 280
SWIDTH 699 0
DWIDTH 6 0
BBX 5 9 0 -1
BITMAP
F8
C0
C0
F8
C0
C0
F8
18
08
ENDCHAR
STARTCHAR eogonek
ENCODING 281
SWIDTH 699 0
DWIDTH 6 0
BBX 5 8 0 -1
BITMAP
78
C8
F8
C0
C8
78
18
08
ENDCHAR
STARTCHAR Ecaron
ENCODING 282
SWIDTH 699 0
DWIDTH 6 0
BBX 5 8 0 0
BITMAP
68
30
00
F8
F8
C0
C0
F8
ENDCHAR
STARTCHAR ecaron
ENCODING 283
SWIDTH 699 0
DWIDTH 6 0
BBX 5 8 0 0
BITMAP
68
30
00
F8
F8
C0
C8
78
ENDCHAR
STARTCHAR Gcircumflex
ENCODING 284
SWIDTH 699 0
DWIDTH 6 0
BBX 5 8 0 0
BITMAP
30
68
00
F8
C0
D8
C8
78
ENDCHAR
STARTCHAR gcircumflex
ENCODING 285
SWIDTH 699 0
DWIDTH 6 0
BBX 5 9 0 -1
BITMAP
30
68
00
F8
C8
C8
78
08
78
ENDCHAR
STARTCHAR Gbreve
ENCODING 286
SWIDTH 699 0
DWIDTH 6 0
BBX 5 8 0 0
BITMAP
48
30
00
F8
C0
D8
C8
78
ENDCHAR
STARTCHAR gbreve
ENCODING 287
SWIDTH 699 0
DWIDTH 6 0
BBX 5 9 0 -1
BITMAP
48
30
00
F8
C8
C8
78
08
78
ENDCHAR
STARTCHAR Gdotaccent
ENCODING 288
SWIDTH 699 0
DWIDTH 6 0
BBX 5 8 0 0
BITMAP
30
00
78
C8
D8
C8
C8
78
ENDCHAR
STARTCHAR gdotaccent
ENCODING 289
SWIDTH 699 0
DWIDTH 6 0
BBX 5 9 0 -1
BITMAP
30
00
78
C8
C8
C8
78
08
78
ENDCHAR
STARTCHAR uni0122
ENCODING 290
SWIDTH 699 0
DWIDTH 6 0
BBX 5 9 0 -1
BITMAP
78
C8
C0
D8
C8
C8
78
30
60
ENDCHAR
STARTCHAR uni0123
ENCODING 291
SWIDTH 699 0
DWIDTH 6 0
BBX 5 9 0 -1
BITMAP
20
30
00
F8
C8
C8
78
08
78
ENDCHAR
STARTCHAR Hcircumflex
ENCODING 292
SWIDTH 699 0
DWIDTH 6 0
BBX 5 8 0 0
BITMAP
30
68
00
C8
F8
C8
C8
C8
ENDCHAR
STARTCHAR hcircumflex
ENCODING 293
SWIDTH 799 0
DWIDTH 7 0
BBX 6 8 0 0
BITMAP
60
D0
00
78
6C
6C
6C
6C
ENDCHAR
STARTCHAR Hbar
ENCODING 294
SWIDTH 799 0
DWIDTH 7 0
BBX 6 8 0 0
BITMAP
68
FC
68
78
68
68
68
68
ENDCHAR
STARTCHAR hbar
ENCODING 295
SWIDTH 799 0
DWIDTH 7 0
BBX 6 8 0 0
BITMAP
60
F8
60
7C
6C
6C
6C
6C
ENDCHAR
STARTCHAR Itilde
ENCODING 296
SWIDTH 699 0
DWIDTH 6 0
BBX 5 8 0 0
BITMAP
78
D8
00
30
30
30
30
30
ENDCHAR
STARTCHAR itilde
ENCODING 297
SWIDTH 699 0
DWIDTH 6 0
BBX 5 8 0 0
BITMAP
78
D8
00
30
30
30
30
30
ENDCHAR
STARTCHAR Imacron
ENCODING 298
SWIDTH 500 0
DWIDTH 5 0
BBX 4 8 0 0
BITMAP
F0
00
60
60
60
60
60
60
ENDCHAR
STARTCHAR imacron
ENCODING 299
SWIDTH 500 0
DWIDTH 5 0
BBX 4 8 0 0
BITMAP
F0
00
60
60
60
60
60
60
ENDCHAR
STARTCHAR Ibreve
ENCODING 300
SWIDTH 500 0
DWIDTH 5 0
BBX 4 8 0 0
BITMAP
90
60
00
60
60
60
60
60
ENDCHAR
STARTCHAR ibreve
ENCODING 301
SWIDTH 500 0
DWIDTH 5 0
BBX 4 8 0 0
BITMAP
90
60
00
60
60
60
60
60
ENDCHAR
STARTCHAR Iogonek
ENCODING 302
SWIDTH 399 0
DWIDTH 4 0
BBX 3 9 0 -1
BITMAP
60
60
60
60
60
60
60
C0
60
ENDCHAR
STARTCHAR iogonek
ENCODING 303
SWIDTH 399 0
DWIDTH 4 0
BBX 3 9 0 -1
BITMAP
60
00
60
60
60
60
60
C0
60
ENDCHAR
STARTCHAR Idotaccent
ENCODING 304
SWIDTH 299 0
DWIDTH 3 0
BBX 2 8 0 0
BITMAP
C0
00
C0
C0
C0
C0
C0
C0
ENDCHAR
STARTCHAR dotlessi
ENCODING 305
SWIDTH 299 0
DWIDTH 3 0
BBX 2 6 0 0
BITMAP
C0
C0
C0
C0
C0
C0
ENDCHAR
STARTCHAR IJ
ENCODING 306
SWIDTH 799 0
DWIDTH 7 0
BBX 6 8 0 0
BITMAP
CC
CC
CC
CC
CC
CC
FC
D8
ENDCHAR
STARTCHAR ij
ENCODING 307
SWIDTH 699 0
DWIDTH 6 0
BBX 5 9 0 -1
BITMAP
C8
00
C8
C8
C8
C8
C8
C8
18
ENDCHAR
STARTCHAR Jcircumflex
ENCODING 308
SWIDTH 699 0
DWIDTH 6 0
BBX 5 8 0 0
BITMAP
18
38
00
18
18
18
D8
70
ENDCHAR
STARTCHAR jcircumflex
ENCODING 309
SWIDTH 500 0
DWIDTH 5 0
BBX 4 9 0 -1
BITMAP
60
D0
00
60
60
60
60
60
C0
ENDCHAR
STARTCHAR uni0136
ENCODING 310
SWIDTH 699 0
DWIDTH 6 0
BBX 5 9 0 -1
BITMAP
C8
C8
C8
F8
C8
C8
C8
30
60
ENDCHAR
STARTCHAR uni0137
ENCODING 311
SWIDTH 699 0
DWIDTH 6 0
BBX 5 9 0 -1
BITMAP
C0
C0
C8
F8
C8
C8
C8
30
60
ENDCHAR
STARTCHAR kgreenlandic
ENCODING 312
SWIDTH 699 0
DWIDTH 6 0
BBX 5 6 0 0
BITMAP
C8
C8
F8
C8
C8
C8
ENDCHAR
STARTCHAR Lacute
ENCODING 313
SWIDTH 699 0
DWIDTH 6 0
BBX 5 8 0 0
BITMAP
60
C0
00
C0
C0
C0
C0
F8
ENDCHAR
STARTCHAR lacute
ENCODING 314
SWIDTH 399 0
DWIDTH 4 0
BBX 3 8 0 0
BITMAP
60
C0
00
C0
C0
C0
C0
C0
ENDCHAR
STARTCHAR uni013B
ENCODING 315
SWIDTH 699 0
DWIDTH 6 0
BBX 5 9 0 -1
BITMAP
C0
C0
C0
C0
C0
C0
F8
30
60
ENDCHAR
STARTCHAR uni013C
ENCODING 316
SWIDTH 399 0
DWIDTH 4 0
BBX 3 9 0 -1
BITMAP
60
60
60
60
60
60
60
60
C0
ENDCHAR
STARTCHAR Lcaron
ENCODING 317
SWIDTH 699 0
DWIDTH 6 0
BBX 5 8 0 0
BITMAP
C8
C8
C8
C8
C0
C0
C0
F8
ENDCHAR
STARTCHAR lcaron
ENCODING 318
SWIDTH 699 0
DWIDTH 6 0
BBX 5 8 0 0
BITMAP
C8
C8
C8
C8
C0
C0
C0
C0
ENDCHAR
STARTCHAR Ldot
ENCODING 319
SWIDTH 699 0
DWIDTH 6 0
BBX 5 8 0 0
BITMAP
C0
C0
C0
C8
C0
C0
C0
F8
ENDCHAR
STARTCHAR ldot
ENCODING 320
SWIDTH 599 0
DWIDTH 5 0
BBX 5 8 0 0
BITMAP
C0
C0
C0
D8
C0
C0
C0
C0
ENDCHAR
STARTCHAR Lslash
ENCODING 321
SWIDTH 799 0
DWIDTH 7 0
BBX 6 8 0 0
BITMAP
60
60
68
F8
E0
60
60
7C
ENDCHAR
STARTCHAR lslash
ENCODING 322
SWIDTH 599 0
DWIDTH 5 0
BBX 5 8 0 0
BITMAP
60
60
68
F8
E0
60
60
60
ENDCHAR
STARTCHAR Nacute
ENCODING 323
SWIDTH 699 0
DWIDTH 6 0
BBX 5 8 0 0
BITMAP
18
30
00
E8
F8
D8
C8
C8
ENDCHAR
STARTCHAR nacute
ENCODING 324
SWIDTH 699 0
DWIDTH 6 0
BBX 5 8 0 0
BITMAP
18
30
00
F8
C8
C8
C8
C8
ENDCHAR
STARTCHAR uni0145
ENCODING 325
SWIDTH 699 0
DWIDTH 6 0
BBX 5 9 0 -1
BITMAP
C8
C8
E8
F8
C8
C8
C8
30
60
ENDCHAR
STARTCHAR uni0146
ENCODING 326
SWIDTH 699 0
DWIDTH 6 0
BBX 5 7 0 -1
BITMAP
B8
C8
C8
C8
C8
30
60
ENDCHAR
STARTCHAR Ncaron
ENCODING 327
SWIDTH 699 0
DWIDTH 6 0
BBX 5 8 0 0
BITMAP
68
30
00
E8
F8
D8
C8
C8
ENDCHAR
STARTCHAR ncaron
ENCODING 328
SWIDTH 699 0
DWIDTH 6 0
BBX 5 8 0 0
BITMAP
68
30
00
F8
C8
C8
C8
C8
ENDCHAR
STARTCHAR napostrophe
ENCODING 329
SWIDTH 799 0
DWIDTH 7 0
BBX 6 8 0 0
BITMAP
C0
40
A8
3C
3C
3C
3C
3C
ENDCHAR
STARTCHAR Eng
ENCODING 330
SWIDTH 699 0
DWIDTH 6 0
BBX 5 9 0 -1
BITMAP
C8
C8
E8
F8
C8
C8
C8
C8
18
ENDCHAR
STARTCHAR eng
ENCODING 331
SWIDTH 699 0
DWIDTH 6 0
BBX 5 7 0 -1
BITMAP
B8
C8
C8
C8
C8
C8
18
ENDCHAR
STARTCHAR Omacron
ENCODING 332
SWIDTH 699 0
DWIDTH 6 0
BBX 5 8 0 0
BITMAP
F8
00
78
C8
C8
C8
C8
78
ENDCHAR
STARTCHAR omacron
ENCODING 333
SWIDTH 699 0
DWIDTH 6 0
BBX 5 8 0 0
BITMAP
F8
00
78
C8
C8
C8
C8
78
ENDCHAR
STARTCHAR Obreve
ENCODING 334
SWIDTH 699 0
DWIDTH 6 0
BBX 5 8 0 0
BITMAP
48
30
00
F8
C8
C8
C8
78
ENDCHAR
STARTCHAR obreve
ENCODING 335
SWIDTH 699 0
DWIDTH 6 0
BBX 5 8 0 0
BITMAP
48
30
00
F8
C8
C8
C8
78
ENDCHAR
STARTCHAR Ohungarumlaut
ENCODING 336
SWIDTH 699 0
DWIDTH 6 0
BBX 5 8 0 0
BITMAP
68
D8
00
F8
C8
C8
C8
78
ENDCHAR
STARTCHAR ohungarumlaut
ENCODING 337
SWIDTH 699 0
DWIDTH 6 0
BBX 5 8 0 0
BITMAP
68
D8
00
F8
C8
C8
C8
78
ENDCHAR
STARTCHAR OE
ENCODING 338
SWIDTH 799 0
DWIDTH 7 0
BBX 6 8 0 0
BITMAP
7C
D8
D8
DC
D8
D8
D8
7C
ENDCHAR
STARTCHAR oe
ENCODING 339
SWIDTH 799 0
DWIDTH 7 0
BBX 6 6 0 0
BITMAP
78
DC
DC
D8
DC
68
ENDCHAR
STARTCHAR Racute
ENCODING 340
SWIDTH 699 0
DWIDTH 6 0
BBX 5 8 0 0
BITMAP
18
30
00
F8
C8
F8
C8
C8
ENDCHAR
STARTCHAR racute
ENCODING 341
SWIDTH 699 0
DWIDTH 6 0
BBX 5 8 0 0
BITMAP
18
30
00
F8
C8
C0
C0
C0
ENDCHAR
STARTCHAR uni0156
ENCODING 342
SWIDTH 699 0
DWIDTH 6 0
BBX 5 9 0 -1
BITMAP
F8
C8
C8
F8
C8
C8
C8
30
60
ENDCHAR
STARTCHAR uni0157
ENCODING 343
SWIDTH 699 0
DWIDTH 6 0
BBX 5 7 0 -1
BITMAP
58
68
60
60
60
60
C0
ENDCHAR
STARTCHAR Rcaron
ENCODING 344
SWIDTH 699 0
DWIDTH 6 0
BBX 5 8 0 0
BITMAP
68
30
00
F8
C8
F8
C8
C8
ENDCHAR
STARTCHAR rcaron
ENCODING 345
SWIDTH 699 0
DWIDTH 6 0
BBX 5 8 0 0
BITMAP
68
30
00
F8
C8
C0
C0
C0
ENDCHAR
STARTCHAR Sacute
ENCODING 346
SWIDTH 699 0
DWIDTH 6 0
BBX 5 8 0 0
BITMAP
18
30
00
F8
E0
18
C8
78
ENDCHAR
STARTCHAR sacute
ENCODING 347
SWIDTH 699 0
DWIDTH 6 0
BBX 5 8 0 0
BITMAP
18
30
00
F8
E0
18
C8
78
ENDCHAR
STARTCHAR Scircumflex
ENCODING 348
SWIDTH 699 0
DWIDTH 6 0
BBX 5 8 0 0
BITMAP
30
68
00
F8
E0
18
C8
78
ENDCHAR
STARTCHAR scircumflex
ENCODING 349
SWIDTH 699 0
DWIDTH 6 0
BBX 5 8 0 0
BITMAP
30
68
00
F8
E0
18
C8
78
ENDCHAR
STARTCHAR Scedilla
ENCODING 350
SWIDTH 699 0
DWIDTH 6 0
BBX 5 9 0 -1
BITMAP
78
C8
C0
78
08
C8
78
30
60
ENDCHAR
STARTCHAR scedilla
ENCODING 351
SWIDTH 699 0
DWIDTH 6 0
BBX 5 7 0 -1
BITMAP
78
E8
18
C8
78
30
60
ENDCHAR
STARTCHAR Scaron
ENCODING 352
SWIDTH 699 0
DWIDTH 6 0
BBX 5 8 0 0
BITMAP
68
30
00
F8
E0
18
C8
78
ENDCHAR
STARTCHAR scaron
ENCODING 353
SWIDTH 699 0
DWIDTH 6 0
BBX 5 8 0 0
BITMAP
68
30
00
F8
E0
18
C8
78
ENDCHAR
STARTCHAR uni0162
ENCODING 354
SWIDTH 699 0
DWIDTH 6 0
BBX 5 9 0 -1
BITMAP
F8
30
30
30
30
30
30
30
60
ENDCHAR
STARTCHAR uni0163
ENCODING 355
SWIDTH 699 0
DWIDTH 6 0
BBX 5 7 0 -1
BITMAP
60
F8
60
60
60
38
60
ENDCHAR
STARTCHAR Tcaron
ENCODING 356
SWIDTH 699 0
DWIDTH 6 0
BBX 5 8 0 0
BITMAP
68
30
00
F8
30
30
30
30
ENDCHAR
STARTCHAR tcaron
ENCODING 357
SWIDTH 799 0
DWIDTH 7 0
BBX 6 7 0 0
BITMAP
64
64
F8
60
60
60
38
ENDCHAR
STARTCHAR Tbar
ENCODING 358
SWIDTH 699 0
DWIDTH 6 0
BBX 5 8 0 0
BITMAP
F8
30
30
78
30
30
30
30
ENDCHAR
STARTCHAR tbar
ENCODING 359
SWIDTH 699 0
DWIDTH 6 0
BBX 5 7 0 0
BITMAP
60
60
F8
F8
60
60
38
ENDCHAR
STARTCHAR Utilde
ENCODING 360
SWIDTH 699 0
DWIDTH 6 0
BBX 5 8 0 0
BITMAP
78
D8
00
C8
C8
C8
C8
78
ENDCHAR
STARTCHAR utilde
ENCODING 361
SWIDTH 699 0
DWIDTH 6 0
BBX 5 8 0 0
BITMAP
78
D8
00
C8
C8
C8
C8
78
ENDCHAR
STARTCHAR Umacron
ENCODING 362
SWIDTH 699 0
DWIDTH 6 0
BBX 5 8 0 0
BITMAP
F8
00
C8
C8
C8
C8
C8
78
ENDCHAR
STARTCHAR umacron
ENCODING 363
SWIDTH 699 0
DWIDTH 6 0
BBX 5 8 0 0
BITMAP
F8
00
C8
C8
C8
C8
C8
78
ENDCHAR
STARTCHAR Ubreve
ENCODING 364
SWIDTH 699 0
DWIDTH 6 0
BBX 5 8 0 0
BITMAP
48
30
00
C8
C8
C8
C8
78
ENDCHAR
STARTCHAR ubreve
ENCODING 365
SWIDTH 699 0
DWIDTH 6 0
BBX 5 8 0 0
BITMAP
48
30
00
C8
C8
C8
C8
78
ENDCHAR
STARTCHAR Uring
ENCODING 366
SWIDTH 699 0
DWIDTH 6 0
BBX 5 8 0 0
BITMAP
30
48
30
C8
C8
C8
C8
78
ENDCHAR
STARTCHAR uring
ENCODING 367
SWIDTH 699 0
DWIDTH 6 0
BBX 5 8 0 0
BITMAP
30
48
30
C8
C8
C8
C8
78
ENDCHAR
STARTCHAR Uhungarumlaut
ENCODING 368
SWIDTH 699 0
DWIDTH 6 0
BBX 5 8 0 0
BITMAP
68
D8
00
C8
C8
C8
C8
78
ENDCHAR
STARTCHAR uhungarumlaut
ENCODING 369
SWIDTH 699 0
DWIDTH 6 0
BBX 5 8 0 0
BITMAP
68
D8
00
C8
C8
C8
C8
78
ENDCHAR
STARTCHAR Uogonek
ENCODING 370
SWIDTH 699 0
DWIDTH 6 0
BBX 5 9 0 -1
BITMAP
C8
C8
C8
C8
C8
C8
78
30
18
ENDCHAR
STARTCHAR uogonek
ENCODING 371
SWIDTH 699 0
DWIDTH 6 0
BBX 5 7 0 -1
BITMAP
C8
C8
C8
C8
78
18
08
ENDCHAR
STARTCHAR Wcircumflex
ENCODING 372
SWIDTH 799 0
DWIDTH 7 0
BBX 6 8 0 0
BITMAP
10
28
00
CC
DC
FC
EC
CC
ENDCHAR
STARTCHAR wcircumflex
ENCODING 373
SWIDTH 799 0
DWIDTH 7 0
BBX 6 8 0 0
BITMAP
10
28
00
CC
CC
DC
FC
68
ENDCHAR
STARTCHAR Ycircumflex
ENCODING 374
SWIDTH 699 0
DWIDTH 6 0
BBX 5 8 0 0
BITMAP
30
68
00
C8
C8
78
30
30
ENDCHAR
STARTCHAR ycircumflex
ENCODING 375
SWIDTH 699 0
DWIDTH 6 0
BBX 5 9 0 -1
BITMAP
30
68
00
C8
C8
C8
78
08
78
ENDCHAR
STARTCHAR Ydieresis
ENCODING 376
SWIDTH 699 0
DWIDTH 6 0
BBX 5 8 0 0
BITMAP
C8
00
C8
C8
78
30
30
30
ENDCHAR
STARTCHAR Zacute
ENCODING 377
SWIDTH 699 0
DWIDTH 6 0
BBX 5 8 0 0
BITMAP
18
30
00
F8
30
60
C0
F8
ENDCHAR
STARTCHAR zacute
ENCODING 378
SWIDTH 699 0
DWIDTH 6 0
BBX 5 8 0 0
BITMAP
18
30
00
F8
30
60
C0
F8
ENDCHAR
STARTCHAR Zdotaccent
ENCODING 379
SWIDTH 699 0
DWIDTH 6 0
BBX 5 8 0 0
BITMAP
30
00
F8
18
30
60
C0
F8
ENDCHAR
STARTCHAR zdotaccent
ENCODING 380
SWIDTH 699 0
DWIDTH 6 0
BBX 5 8 0 0
BITMAP
30
00
F8
18
30
60
C0
F8
ENDCHAR
STARTCHAR Zcaron
ENCODING 381
SWIDTH 699 0
DWIDTH 6 0
BBX 5 8 0 0
BITMAP
68
30
00
F8
30
60
C0
F8
ENDCHAR
STARTCHAR zcaron
ENCODING 382
SWIDTH 699 0
DWIDTH 6 0
BBX 5 8 0 0
BITMAP
68
30
00
F8
30
60
C0
F8
ENDCHAR
STARTCHAR longs
ENCODING 383
SWIDTH 699 0
DWIDTH 6 0
BBX 5 8 0 0
BITMAP
38
68
60
E0
60
60
60
60
ENDCHAR
STARTCHAR circumflex
ENCODING 710
SWIDTH 500 0
DWIDTH 5 0
BBX 4 2 0 6
BITMAP
60
D0
ENDCHAR
STARTCHAR ring
ENCODING 730
SWIDTH 500 0
DWIDTH 5 0
BBX 4 3 0 5
BITMAP
60
D0
60
ENDCHAR
STARTCHAR tilde
ENCODING 732
SWIDTH 699 0
DWIDTH 6 0
BBX 5 2 0 6
BITMAP
78
D8
ENDCHAR
STARTCHAR uni1E9E
ENCODING 7838
SWIDTH 699 0
DWIDTH 6 0
BBX 5 8 0 0
BITMAP
70
D8
C8
D8
C8
C8
C8
D8
ENDCHAR
STARTCHAR endash
ENCODING 8211
SWIDTH 699 0
DWIDTH 6 0
BBX 5 1 0 4
BITMAP
F8
ENDCHAR
STARTCHAR emdash
ENCODING 8212
SWIDTH 799 0
DWIDTH 7 0
BBX 6 1 0 4
BITMAP
FC
ENDCHAR
STARTCHAR quoteleft
ENCODING 8216
SWIDTH 299 0
DWIDTH 3 0
BBX 2 4 0 4
BITMAP
40
80
C0
C0
ENDCHAR
STARTCHAR quoteright
ENCODING 8217
SWIDTH 299 0
DWIDTH 3 0
BBX 2 4 0 4
BITMAP
C0
C0
40
80
ENDCHAR
STARTCHAR quotesinglbase
ENCODING 8218
SWIDTH 299 0
DWIDTH 3 0
BBX 2 4 0 -1
BITMAP
C0
C0
40
80
ENDCHAR
STARTCHAR quotereversed
ENCODING 8219
SWIDTH 299 0
DWIDTH 3 0
BBX 2 4 0 4
BITMAP
C0
C0
80
40
ENDCHAR
STARTCHAR quotedblleft
ENCODING 8220
SWIDTH 599 0
DWIDTH 5 0
BBX 5 4 0 4
BITMAP
48
90
D8
D8
ENDCHAR
STARTCHAR quotedblright
ENCODING 8221
SWIDTH 599 0
DWIDTH 5 0
BBX 5 4 0 4
BITMAP
D8
D8
48
90
ENDCHAR
STARTCHAR quotedblbase
ENCODING 8222
SWIDTH 599 0
DWIDTH 5 0
BBX 5 4 0 -1
BITMAP
D8
D8
48
90
ENDCHAR
STARTCHAR dagger
ENCODING 8224
SWIDTH 699 0
DWIDTH 6 0
BBX 5 8 0 0
BITMAP
30
30
F8
30
30
30
30
30
ENDCHAR
STARTCHAR bullet
ENCODING 8226
SWIDTH 500 0
DWIDTH 5 0
BBX 4 3 0 2
BITMAP
F0
F0
60
ENDCHAR
STARTCHAR ellipsis
ENCODING 8230
SWIDTH 799 0
DWIDTH 7 0
BBX 6 2 0 0
BITMAP
DC
DC
ENDCHAR
STARTCHAR guilsinglleft
ENCODING 8249
SWIDTH 500 0
DWIDTH 5 0
BBX 4 4 0 2
BITMAP
30
E0
60
30
ENDCHAR
STARTCHAR guilsinglright
ENCODING 8250
SWIDTH 500 0
DWIDTH 5 0
BBX 4 4 0 2
BITMAP
C0
70
60
C0
ENDCHAR
STARTCHAR fraction
ENCODING 8260
SWIDTH 799 0
DWIDTH 7 0
BBX 6 7 0 0
BITMAP
0C
0C
18
30
60
C0
C0
ENDCHAR
STARTCHAR uni2074
ENCODING 8308
SWIDTH 699 0
DWIDTH 6 0
BBX 5 6 0 2
BITMAP
C8
C8
C8
F8
08
08
ENDCHAR
STARTCHAR Euro
ENCODING 8364
SWIDTH 699 0
DWIDTH 6 0
BBX 5 8 0 0
BITMAP
38
68
60
F8
F8
60
68
38
ENDCHAR
STARTCHAR trademark
ENCODING 8482
SWIDTH 799 0
DWIDTH 7 0
BBX 6 4 0 4
BITMAP
F4
5C
54
54
ENDCHAR
STARTCHAR minus
ENCODING 8722
SWIDTH 699 0
DWIDTH 6 0
BBX 5 1 0 4
BITMAP
F8
ENDCHAR
STARTCHAR uni2215
ENCODING 8725
SWIDTH 699 0
DWIDTH 6 0
BBX 5 8 0 0
BITMAP
08
18
18
30
60
60
C0
C0
ENDCHAR
STARTCHAR .notdef
ENCODING -1
SWIDTH 799 0
DWIDTH 7 0
BBX 6 8 0 0
BITMAP
78
CC
CC
CC
D8
C0
CC
78
ENDCHAR
STARTCHAR glyph1
ENCODING -1
SWIDTH 99 0
DWIDTH 1 0
BBX 1 1 0 0
BITMAP
00
ENDCHAR
STARTCHAR glyph2
ENCODING -1
SWIDTH 99 0
DWIDTH 1 0
BBX 1 1 0 0
BITMAP
00
ENDCHAR
ENDFONT
